<?xml version="1.0" standalone="no"?>
<!DOCTYPE svg PUBLIC "-//W3C//DTD SVG 20010904//EN"
 "http://www.w3.org/TR/2001/REC-SVG-20010904/DTD/svg10.dtd">
<svg version="1.0" xmlns="http://www.w3.org/2000/svg"
 width="1196.000000pt" height="1196.000000pt" viewBox="0 0 1196.000000 1196.000000"
 preserveAspectRatio="xMidYMid meet">
<metadata>
Created by potrace 1.14, written by Peter Selinger 2001-2017
</metadata>
<g transform="translate(0.000000,1196.000000) scale(0.100000,-0.100000)"
fill="#000000" stroke="none">
<path d="M6459 11343 c13 -10 31 -25 40 -34 10 -8 25 -18 34 -22 9 -3 15 -12
12 -19 -10 -27 10 -38 58 -32 26 4 47 10 47 14 0 4 -12 5 -26 2 -19 -3 -25 -1
-20 6 9 14 -43 84 -56 76 -5 -3 -20 1 -33 10 -13 9 -37 16 -52 16 l-27 0 23
-17z"/>
<path d="M6382 11279 c-30 -12 -42 -25 -69 -76 -55 -104 -70 -128 -100 -162
l-32 -36 -7 33 c-6 31 -8 32 -54 32 -30 0 -50 -5 -53 -12 -3 -10 -9 -10 -25
-1 -19 11 -21 10 -20 -16 1 -34 -8 -51 -28 -51 -17 0 -17 -1 -5 -33 11 -29 3
-42 -16 -25 -10 8 -19 6 -36 -10 -12 -11 -34 -23 -48 -27 -18 -4 -25 -13 -25
-28 1 -20 -4 -22 -54 -23 -78 -2 -75 -1 -110 -36 l-33 -32 -17 22 c-22 27 -53
30 -47 5 2 -10 -2 -30 -9 -44 -13 -25 -12 -27 14 -32 23 -5 27 -11 29 -41 2
-19 -2 -38 -7 -41 -6 -3 -10 -15 -10 -26 0 -10 -5 -19 -11 -19 -6 0 -9 12 -7
27 2 21 -2 29 -17 31 -11 3 -23 9 -26 14 -9 14 -42 17 -56 5 -18 -13 -16 -52
2 -67 28 -23 17 -33 -30 -27 -48 7 -57 2 -48 -31 6 -24 41 -30 61 -10 19 19
44 -9 31 -34 -11 -20 -40 -21 -79 -4 -11 4 -20 -6 -32 -37 -22 -52 -22 -63 -3
-71 17 -6 21 -66 5 -82 -8 -8 -8 -19 0 -38 17 -46 12 -104 -10 -123 -11 -10
-20 -23 -20 -31 0 -10 5 -10 20 -2 15 8 20 8 20 -2 0 -7 3 -23 6 -35 5 -18 2
-23 -14 -23 -11 0 -27 -11 -36 -25 -19 -29 -44 -33 -52 -7 -3 9 -10 26 -15 37
-4 11 -10 34 -11 50 -4 40 -47 47 -74 13 -16 -19 -29 -23 -82 -24 -50 -1 -68
-6 -86 -23 -13 -12 -30 -21 -37 -19 -9 2 -15 -8 -17 -27 -4 -33 -28 -65 -49
-65 -21 0 -15 -17 9 -23 12 -4 28 -1 35 5 21 17 43 1 43 -31 0 -35 -15 -48
-36 -30 -18 15 -29 2 -50 -56 -14 -38 -57 -46 -85 -16 -10 11 -19 23 -19 26 0
3 18 30 40 59 37 49 39 55 29 84 l-11 31 -49 -26 -49 -27 -19 21 c-11 11 -17
24 -13 27 3 4 0 11 -8 16 -10 6 -21 3 -35 -9 -11 -10 -31 -22 -43 -26 -13 -4
-33 -16 -43 -26 -22 -22 -49 -25 -67 -7 -9 9 -12 8 -12 -5 0 -9 -16 -31 -35
-48 -38 -35 -44 -49 -20 -49 30 0 26 -28 -9 -75 -34 -44 -41 -60 -48 -110 -2
-13 -12 -21 -28 -23 -14 -2 -33 -13 -42 -25 -15 -18 -19 -20 -27 -7 -12 17 -4
67 16 98 12 19 20 22 43 17 31 -7 36 2 43 65 1 14 5 27 8 30 4 3 9 14 13 25 5
18 0 22 -38 31 -24 5 -49 8 -55 6 -6 -2 -11 -25 -11 -51 0 -89 -42 -106 -79
-32 -18 35 -26 41 -65 46 -76 12 -90 -20 -31 -69 37 -31 44 -50 21 -59 -24
-10 -90 14 -111 39 -24 28 -87 40 -105 19 -6 -7 -8 -25 -4 -39 5 -20 12 -26
28 -24 17 2 22 -3 24 -29 2 -24 -1 -33 -17 -38 -28 -8 -44 3 -38 26 13 50 -57
-51 -117 -168 -36 -69 -57 -90 -78 -77 -15 10 0 74 28 117 20 31 23 44 16 65
l-9 27 -28 -43 c-26 -40 -41 -81 -69 -194 -14 -57 -43 -82 -85 -73 -21 4 -30
2 -34 -9 -4 -9 -2 -16 3 -16 6 0 10 -7 10 -16 0 -18 -37 -74 -49 -74 -5 0 -11
24 -14 53 -10 77 -36 149 -54 145 -22 -4 -65 -122 -70 -191 -4 -46 -9 -61 -28
-73 -16 -10 -25 -28 -28 -57 -12 -93 -18 -108 -41 -105 -18 3 -21 9 -20 42 1
31 -4 44 -25 62 -57 51 -97 20 -110 -86 -8 -71 -8 -76 15 -101 26 -27 29 -52
15 -108 -5 -20 -15 -70 -22 -111 -12 -79 -22 -100 -47 -100 -13 0 -14 13 -9
83 4 59 2 87 -7 100 -7 9 -16 17 -18 17 -11 0 -27 -125 -25 -184 l2 -59 -37
-13 c-21 -7 -48 -22 -60 -34 -22 -20 -32 -21 -68 -6 -8 3 -28 -4 -44 -17 -25
-20 -27 -26 -17 -44 16 -32 15 -170 -3 -180 -7 -4 -21 -22 -30 -40 -14 -27
-14 -39 -3 -95 10 -51 17 -64 33 -66 12 -2 27 4 34 13 23 28 46 18 63 -27 9
-24 15 -52 12 -63 -2 -11 -4 -23 -4 -27 -2 -19 -28 -5 -46 25 -11 17 -28 33
-37 35 -16 3 -17 -9 -12 -127 5 -149 2 -154 -74 -144 -38 5 -42 3 -53 -21 -10
-22 -10 -34 1 -63 18 -53 67 -117 93 -123 19 -5 23 -15 29 -75 5 -54 3 -79 -9
-107 -14 -34 -20 -38 -53 -38 -57 0 -67 -41 -25 -102 20 -30 25 -49 25 -104 0
-52 3 -65 14 -61 40 16 47 -49 11 -107 -20 -34 -22 -41 -9 -50 8 -6 18 -26 23
-43 9 -29 7 -33 -10 -33 -28 0 -129 -120 -129 -153 0 -7 13 -28 28 -47 35 -43
43 -65 31 -77 -6 -6 -4 -20 6 -39 23 -45 19 -72 -11 -80 -26 -7 -26 -7 -20
-83 10 -111 21 -138 61 -151 39 -13 98 -81 93 -107 -2 -10 -12 -19 -23 -21
-30 -6 -45 -22 -45 -48 0 -19 5 -24 25 -24 40 0 93 -55 111 -116 8 -29 17 -66
18 -80 2 -15 10 -31 19 -36 10 -5 17 -17 17 -28 0 -23 -45 -60 -73 -60 -19 0
-19 -4 -13 -96 4 -53 10 -102 12 -109 3 -7 19 -15 36 -19 34 -7 103 -58 120
-89 9 -17 7 -24 -11 -38 -25 -21 -26 -31 -4 -72 9 -18 20 -59 24 -92 12 -93
24 -148 39 -172 11 -17 11 -27 3 -45 -6 -13 -14 -35 -17 -50 -3 -14 -8 -33
-12 -41 -3 -9 8 -23 32 -37 48 -30 79 -96 63 -136 -8 -24 -7 -31 7 -41 17 -12
17 -17 -4 -87 -12 -41 -33 -91 -47 -112 -34 -50 -62 -144 -81 -272 -8 -58 -18
-111 -22 -116 -6 -10 -25 -573 -26 -776 -1 -176 19 -303 73 -460 57 -165 103
-239 193 -315 33 -27 79 -75 103 -105 57 -74 187 -197 255 -241 53 -35 175
-89 201 -89 6 0 64 -29 128 -65 64 -35 161 -82 216 -103 55 -21 166 -78 247
-125 80 -48 156 -91 169 -96 42 -16 230 -125 354 -205 177 -114 422 -231 770
-367 340 -133 447 -165 605 -180 58 -5 113 -14 123 -20 12 -6 26 -5 48 6 27
15 35 15 87 0 31 -9 61 -23 65 -31 12 -21 31 -17 42 9 8 18 143 97 166 97 14
0 16 -40 3 -51 -8 -6 -14 -18 -14 -27 0 -11 8 -13 34 -9 35 6 66 -14 66 -42 0
-7 10 -11 23 -10 44 6 49 -9 17 -57 -31 -44 -47 -52 -79 -35 -9 5 -23 6 -30 2
-22 -14 37 -61 68 -55 37 7 56 -8 42 -33 -8 -16 -6 -24 12 -40 33 -29 70 -53
84 -53 21 0 43 31 43 61 0 17 7 37 15 46 14 14 14 17 1 32 -14 15 -21 53 -17
90 1 11 6 10 26 -3 35 -23 52 -20 69 11 27 51 134 156 151 149 11 -4 13 -11 7
-23 -5 -10 -12 -33 -16 -52 -5 -29 -4 -32 12 -26 44 19 60 17 78 -9 9 -15 21
-25 27 -23 12 4 16 56 5 63 -8 5 11 54 22 54 3 0 4 15 3 33 -3 26 3 39 36 73
35 36 44 41 78 38 21 -2 44 -3 51 -3 7 -1 20 -10 29 -21 20 -23 43 -26 43 -7
0 20 57 121 80 142 24 22 25 38 4 56 -10 8 -13 21 -9 37 4 17 0 28 -12 37 -17
13 -16 14 10 24 15 6 27 15 27 20 0 5 7 12 15 15 10 4 19 -3 25 -18 5 -13 15
-26 22 -28 8 -3 12 -18 9 -44 l-3 -39 21 19 c12 11 21 26 21 34 0 11 3 12 14
3 21 -18 27 9 33 154 5 113 3 132 -11 144 -22 18 -20 46 5 81 12 16 23 46 25
68 1 22 9 53 17 69 10 19 12 34 6 44 -5 8 -6 28 -3 45 4 21 1 34 -10 43 -20
17 -21 51 -1 51 20 0 37 44 29 76 -8 30 -22 40 -37 25 -6 -6 -19 -11 -29 -11
-24 0 -13 24 16 38 18 8 25 21 30 60 3 27 16 62 27 76 23 29 19 55 -9 62 -9 3
-22 17 -29 31 -11 22 -9 30 8 54 14 21 21 48 23 101 3 72 18 128 33 128 9 0
33 -48 33 -66 0 -6 11 -11 26 -12 22 0 24 3 19 29 -6 27 -58 89 -74 89 -11 0
-58 99 -66 138 -5 24 -3 33 10 38 20 8 55 -23 55 -48 0 -13 7 -18 25 -18 18 0
31 -9 43 -30 31 -54 45 -34 49 67 2 58 -1 74 -14 81 -11 7 -14 17 -9 36 8 34
31 28 31 -7 -1 -19 4 -27 16 -27 13 0 19 13 24 53 4 28 14 72 23 97 13 39 18
60 21 94 1 4 13 5 29 1 15 -5 48 -9 74 -9 41 -1 48 2 48 18 0 11 -8 28 -17 38
-16 18 -16 21 0 47 20 34 21 54 7 82 -11 19 -12 19 -39 3 -40 -24 -58 -13 -66
39 -7 43 -2 70 28 152 15 40 15 40 85 50 39 6 72 12 75 15 2 3 7 47 10 98 6
91 5 93 -18 102 -29 11 -97 76 -114 108 -9 17 -10 31 -2 53 7 20 7 38 0 55 -6
17 -6 47 2 90 12 71 8 97 -16 88 -18 -7 -19 9 -3 39 6 12 15 42 19 67 4 25 12
65 19 89 9 36 8 47 -5 60 -8 10 -20 31 -26 49 -6 17 -19 34 -30 37 -25 8 -24
37 1 55 11 8 20 25 20 37 0 27 -20 32 -21 6 0 -14 -2 -15 -6 -3 -11 35 -27 60
-39 60 -7 0 -16 22 -20 53 -12 72 -11 80 6 82 50 8 101 28 108 43 5 9 12 42
15 72 3 30 9 69 12 86 6 28 4 32 -24 42 -17 6 -36 22 -43 36 -6 15 -14 26 -17
26 -4 0 -15 15 -25 34 -15 29 -16 40 -7 69 6 18 9 42 5 51 -4 11 2 26 16 41
16 17 20 29 15 42 -5 10 -7 40 -6 67 2 33 0 46 -8 42 -20 -13 -31 4 -19 29 6
14 15 25 20 25 4 0 8 13 8 29 0 15 11 49 25 75 30 56 31 75 7 107 -10 13 -21
32 -25 42 -3 9 -11 17 -17 17 -19 0 -10 38 10 43 18 5 20 14 20 76 0 39 -2 71
-5 71 -2 0 -15 -5 -29 -11 -20 -9 -28 -9 -40 4 -9 9 -13 22 -10 30 3 8 9 37
13 63 4 30 12 48 19 47 14 -3 16 28 3 42 -5 6 -5 60 -1 125 12 174 19 450 10
450 -4 0 -6 23 -4 50 1 28 -2 48 -7 44 -5 -3 -6 57 -2 148 12 275 15 1228 3
1228 -6 0 -10 31 -10 80 0 47 -4 80 -10 80 -5 0 -10 6 -10 14 0 7 -7 19 -15
26 -8 7 -15 19 -15 27 0 19 -25 43 -44 43 -14 0 -16 16 -16 100 0 63 -5 111
-14 132 -8 18 -28 82 -46 143 -39 135 -60 177 -102 206 -18 13 -48 38 -66 56
-22 22 -43 33 -65 34 l-32 2 30 4 c16 3 32 8 35 12 3 3 18 12 33 19 15 7 25
17 22 22 -4 7 -12 7 -24 0 -24 -13 -104 42 -95 65 4 8 10 15 15 15 12 0 12 45
0 68 -5 9 -14 36 -20 60 -8 26 -18 42 -27 42 -11 0 -14 9 -12 32 3 28 8 34 43
44 39 10 63 44 32 44 -8 0 -27 16 -42 36 -24 31 -26 39 -14 48 23 17 12 49
-14 42 -12 -3 -25 -6 -29 -6 -5 0 -8 -11 -8 -25 0 -14 -4 -25 -9 -25 -23 0
-41 14 -41 31 0 29 -26 33 -59 9 -23 -16 -42 -20 -77 -18 l-45 3 50 38 c43 33
54 37 85 32 l35 -7 -6 36 c-5 31 -3 37 19 45 36 13 43 49 13 61 -12 5 -25 15
-28 22 -2 7 -8 9 -13 5 -5 -4 -2 -12 6 -18 13 -8 12 -12 -6 -27 -12 -10 -24
-27 -26 -38 -5 -29 -33 -23 -36 9 -3 25 -22 40 -22 17 0 -5 -10 -10 -21 -10
-12 0 -28 -8 -36 -17 -13 -16 -14 -15 -8 12 3 17 6 37 5 45 0 8 0 23 -1 33 0
14 -5 17 -17 12 -39 -15 -84 -17 -127 -4 -25 7 -45 16 -45 19 0 11 44 47 78
64 17 9 32 20 32 24 0 11 -52 32 -63 25 -5 -3 -7 0 -5 8 3 8 13 13 22 13 9 -1
31 13 49 31 18 18 43 36 57 40 47 14 180 88 174 96 -7 12 -41 11 -49 -1 -3 -5
-14 -10 -23 -10 -9 0 -29 -12 -45 -27 -23 -23 -37 -28 -72 -26 -28 1 -48 -4
-56 -13 -19 -24 -75 -18 -96 11 -13 19 -30 26 -68 31 -27 3 -60 11 -73 17 -16
8 -25 8 -34 -1 -9 -9 -7 -13 5 -18 24 -9 21 -21 -8 -40 -20 -13 -28 -14 -40
-4 -8 6 -19 9 -24 6 -6 -4 -27 1 -48 11 -60 27 -77 31 -96 21 -28 -14 -37 -49
-21 -80 8 -15 11 -33 8 -41 -3 -8 1 -21 10 -29 17 -18 11 -29 -29 -52 -26 -15
-37 -16 -73 -6 -52 14 -64 36 -32 60 l23 18 -33 17 c-31 16 -32 18 -14 28 10
6 33 10 50 8 18 -1 36 4 44 14 11 13 10 20 -6 42 -11 15 -27 30 -35 34 -7 3
-27 13 -42 20 -16 7 -35 28 -43 47 -9 23 -19 32 -28 29 -8 -3 -30 -1 -50 4
-36 10 -52 35 -42 67 8 25 -6 42 -35 41 -101 -2 -92 6 -93 -75 -1 -61 -19 -88
-47 -73 -24 12 -25 56 -1 82 12 15 14 21 5 24 -7 3 -13 12 -13 21 0 14 -2 14
-13 -2 -12 -16 -14 -16 -35 4 -33 31 -19 42 44 34 58 -7 60 -5 55 54 -2 25 24
41 42 23 15 -15 47 -14 47 3 0 7 -10 26 -22 41 -38 49 -2 71 70 44 23 -9 24
-13 19 -60 -5 -44 -4 -50 11 -47 11 2 18 15 20 36 4 36 25 43 42 13 16 -31 12
-62 -9 -68 -18 -5 -37 -66 -25 -85 11 -18 24 -7 24 21 0 40 10 44 48 19 27
-17 32 -26 32 -59 0 -27 4 -39 14 -39 27 0 45 104 25 141 -7 13 -14 48 -15 77
-4 65 -12 94 -25 86 -6 -3 -19 2 -29 11 -14 13 -23 14 -38 6 -38 -20 -52 -4
-52 61 0 71 -12 98 -45 98 -36 0 -37 13 -5 43 34 33 30 56 -12 64 -34 7 -51
33 -42 68 5 22 3 25 -19 25 -14 0 -47 14 -72 31 -44 30 -47 30 -60 13 -9 -13
-10 -24 -4 -36 5 -9 9 -33 9 -52 0 -29 -4 -36 -20 -36 -23 0 -43 40 -34 65 4
8 1 22 -6 30 -8 9 -10 29 -7 49 4 22 1 36 -6 39 -7 3 2 17 21 33 29 25 33 34
30 64 l-4 35 -11 -27 c-17 -39 -32 -43 -44 -11 l-10 28 -15 -31 c-9 -19 -28
-35 -49 -43 -25 -9 -35 -19 -40 -42 -5 -21 -12 -29 -23 -27 -19 4 -19 17 -2
68 19 54 27 65 43 64 9 -1 18 9 21 22 4 15 14 24 26 24 11 0 20 7 20 15 0 17
-14 18 -48 4z m-822 -1488 c16 -31 12 -41 -15 -41 -27 0 -41 20 -31 45 8 21
33 19 46 -4z m2576 -5668 c17 -22 18 -65 2 -81 -18 -18 -26 -15 -43 18 -12 23
-13 34 -3 55 13 29 26 32 44 8z m274 -122 c0 -11 -4 -22 -9 -26 -5 -3 -12 -18
-16 -34 -3 -16 -15 -37 -25 -46 -18 -16 -21 -16 -44 -1 -30 19 -25 41 13 54
20 7 30 19 34 41 5 22 12 31 27 31 13 0 20 -7 20 -19z m-145 -191 c0 -18 -6
-26 -23 -28 -13 -2 -25 3 -28 12 -10 26 4 48 28 44 17 -2 23 -10 23 -28z m-97
-512 c27 2 39 -22 22 -43 -10 -12 -16 -13 -27 -3 -8 6 -26 12 -39 13 -23 1
-43 19 -44 38 0 5 15 5 33 1 17 -4 42 -7 55 -6z m-134 -988 c12 -12 -8 -64
-27 -68 -18 -4 -37 33 -37 70 0 17 4 19 28 13 15 -3 31 -10 36 -15z m-781
-1227 c3 -21 6 -52 6 -69 1 -31 1 -32 -42 -29 -24 1 -54 6 -66 10 -15 5 -29 1
-42 -11 -15 -13 -22 -15 -31 -6 -27 27 97 142 153 142 12 0 19 -11 22 -37z
m-48 -203 c-22 -24 -43 -26 -51 -5 -4 9 3 24 17 36 20 17 24 18 38 5 13 -14
13 -18 -4 -36z"/>
<path d="M6625 11140 c-20 -22 -21 -21 17 -37 31 -14 38 -9 38 29 0 34 -28 38
-55 8z"/>
<path d="M6730 11113 c0 -22 2 -25 10 -13 13 20 13 40 0 40 -5 0 -10 -12 -10
-27z"/>
<path d="M6568 11113 c6 -2 18 -2 25 0 6 3 1 5 -13 5 -14 0 -19 -2 -12 -5z"/>
<path d="M6741 11014 c0 -11 3 -14 6 -6 3 7 2 16 -1 19 -3 4 -6 -2 -5 -13z"/>
<path d="M5830 11005 c-15 -18 -5 -35 22 -35 14 0 18 5 14 16 -3 9 -6 20 -6
25 0 14 -16 11 -30 -6z"/>
<path d="M5956 10971 c-4 -7 -5 -15 -2 -18 9 -9 19 4 14 18 -4 11 -6 11 -12 0z"/>
<path d="M5758 10899 c-10 -6 -18 -14 -18 -19 0 -13 21 -12 40 0 22 14 0 32
-22 19z"/>
<path d="M5535 10740 c-3 -6 1 -13 10 -16 19 -8 30 0 20 15 -8 14 -22 14 -30
1z"/>
<path d="M5495 10710 c-3 -5 1 -10 10 -10 9 0 13 5 10 10 -3 6 -8 10 -10 10
-2 0 -7 -4 -10 -10z"/>
<path d="M5322 10218 c-6 -6 -12 -20 -12 -30 0 -14 8 -18 36 -18 27 0 35 4 32
16 -2 8 -6 14 -10 12 -4 -2 -13 5 -20 15 -11 14 -16 15 -26 5z"/>
<path d="M5025 10170 c-7 -12 2 -30 16 -30 5 0 9 9 9 20 0 21 -15 27 -25 10z"/>
<path d="M7593 10031 c-28 -24 -29 -31 -3 -31 13 0 26 -12 37 -34 19 -40 43
-50 72 -29 26 18 27 50 2 58 -11 3 -26 17 -35 30 -19 30 -43 31 -73 6z"/>
<path d="M7865 9854 c-9 -9 -14 -19 -11 -21 9 -9 46 9 46 23 0 19 -15 18 -35
-2z"/>
<path d="M3616 9669 c-55 -108 -13 -182 79 -143 44 18 53 37 49 99 -6 90 -9
95 -59 95 -43 0 -45 -1 -69 -51z"/>
<path d="M7995 9641 c-3 -5 -1 -12 5 -16 12 -7 30 2 30 16 0 12 -27 12 -35 0z"/>
<path d="M8005 9431 c-7 -12 12 -24 25 -16 11 7 4 25 -10 25 -5 0 -11 -4 -15
-9z"/>
<path d="M8060 9194 c0 -8 5 -12 10 -9 6 3 10 10 10 16 0 5 -4 9 -10 9 -5 0
-10 -7 -10 -16z"/>
<path d="M8100 9200 c0 -5 5 -10 10 -10 6 0 10 5 10 10 0 6 -4 10 -10 10 -5 0
-10 -4 -10 -10z"/>
<path d="M2975 8821 c-3 -5 -19 -12 -35 -16 -20 -4 -32 -14 -35 -28 -13 -60
-11 -85 9 -127 29 -61 63 -66 110 -18 40 41 40 54 1 136 -29 61 -38 71 -50 53z"/>
<path d="M2700 8035 c-12 -22 -11 -30 3 -60 52 -109 87 -136 128 -99 18 16 18
18 -2 45 -15 21 -18 37 -14 62 6 30 3 37 -23 56 -41 29 -75 27 -92 -4z"/>
<path d="M2580 6272 c0 -21 25 -92 32 -92 4 0 1 21 -7 46 -14 47 -25 67 -25
46z"/>
<path d="M8380 6070 c-11 -7 -12 -12 -4 -20 8 -8 14 -7 23 4 14 17 1 28 -19
16z"/>
<path d="M8642 5708 c-21 -21 -14 -48 12 -48 26 0 39 20 30 45 -7 18 -26 19
-42 3z"/>
<path d="M2815 5560 c-4 -7 -18 -9 -31 -6 -31 8 -31 -9 -3 -92 22 -65 35 -83
24 -32 -8 39 1 67 26 75 22 7 25 37 5 54 -11 9 -16 9 -21 1z"/>
<path d="M3006 5265 c-8 -22 4 -46 23 -43 9 2 17 15 19 31 3 21 -1 27 -16 27
-11 0 -22 -7 -26 -15z"/>
<path d="M8450 5259 c-12 -22 -7 -49 9 -49 13 0 42 55 34 64 -13 12 -33 6 -43
-15z"/>
<path d="M2950 5124 c1 -5 14 -31 30 -59 17 -27 33 -58 36 -67 9 -27 22 -21
16 7 -2 14 -8 25 -12 25 -5 0 -13 15 -20 34 -10 31 -50 80 -50 60z"/>
<path d="M8640 5014 c0 -8 5 -12 10 -9 6 3 10 10 10 16 0 5 -4 9 -10 9 -5 0
-10 -7 -10 -16z"/>
<path d="M8640 4945 c0 -19 5 -35 10 -35 6 0 10 16 10 35 0 19 -4 35 -10 35
-5 0 -10 -16 -10 -35z"/>
<path d="M2932 4793 c-19 -38 21 -61 48 -28 10 12 10 18 0 30 -17 20 -37 19
-48 -2z"/>
<path d="M8666 4465 c-18 -19 -11 -45 13 -45 27 0 42 20 30 42 -12 22 -23 23
-43 3z"/>
<path d="M8534 4012 c-19 -13 -23 -40 -7 -53 13 -11 18 -10 29 6 23 31 7 67
-22 47z"/>
<path d="M8744 3787 c3 -10 6 -42 6 -69 0 -28 3 -48 7 -44 10 9 4 97 -8 115
-9 14 -10 13 -5 -2z"/>
<path d="M8405 2862 c-37 -18 -45 -30 -45 -62 0 -16 -12 -35 -35 -53 -22 -18
-35 -36 -35 -52 0 -27 24 -55 47 -55 22 0 81 38 93 60 6 11 23 27 39 36 33 20
51 52 51 92 0 23 -7 30 -33 40 -40 14 -44 14 -82 -6z"/>
<path d="M8261 1761 c-8 -14 -7 -22 4 -31 19 -16 45 3 45 31 0 25 -36 25 -49
0z"/>
<path d="M8007 1173 c-4 -3 -7 -19 -7 -35 0 -16 -5 -38 -11 -49 -5 -11 -9 -28
-7 -37 3 -11 14 1 32 36 16 32 25 61 21 73 -7 20 -17 24 -28 12z"/>
<path d="M7321 768 c-28 -26 -61 -82 -61 -103 0 -4 25 15 55 42 36 31 55 56
55 71 0 29 -9 28 -49 -10z"/>
<path d="M7216 638 c-9 -12 -16 -31 -16 -42 0 -20 0 -20 19 -1 23 24 37 65 22
65 -5 0 -17 -10 -25 -22z"/>
</g>
</svg>
